<?xml version="1.0" encoding="UTF-8"?>
<svg enable-background="new 0 0 20 20" version="1.1" viewBox="0 0 20 20" xml:space="preserve"
     xmlns="http://www.w3.org/2000/svg">
<path d="m11 15h-2v-2h2v2z"/>
  <path
    d="m10 2c4.4 0 8 3.6 8 8s-3.6 8-8 8-8-3.6-8-8 3.6-8 8-8m0-2c-5.5 0-10 4.5-10 10s4.5 10 10 10 10-4.5 10-10-4.5-10-10-10z"/>
  <path
    d="M9,12c0-1.4,0.6-1.9,1.1-2.4c0.3-0.2,0.5-0.5,0.6-0.8c0.2-0.3,0.2-0.6,0.2-1s-0.1-0.7-0.3-1c-0.2-0.2-0.4-0.4-0.8-0.4   c-0.3,0-1,0.1-1,1.5H7V7.5c0-0.9,0.3-1.5,0.8-2C8.4,5.2,9.1,5,9.9,5c1,0,1.7,0.2,2.2,0.8s0.8,1.2,0.8,2c0,2.4-2,2.5-2,4.2H9z"/>
</svg>
